HIERARCHY
ROOT Hips
{
	OFFSET 0.000000 0.000000 0.000000
	CHANNELS 6 Xposition Yposition Zposition Zrotation Yrotation Xrotation 
	JOINT LHipJoint
	{
		OFFSET 0.000000 0.000000 0.000000
		CHANNELS 3 Zrotation Yrotation Xrotation
		JOINT LeftUpLeg
		{
			OFFSET 1.363060 -1.794630 0.839290
			CHANNELS 3 Zrotation Yrotation Xrotation
			JOINT LeftLeg
			{
				OFFSET 2.448110 -6.726130 0.000000
				CHANNELS 3 Zrotation Yrotation Xrotation
				JOINT LeftFoot
				{
					OFFSET 2.562200 -7.039590 0.000000
					CHANNELS 3 Zrotation Yrotation Xrotation
					JOINT LeftToeBase
					{
						OFFSET 0.157640 -0.433110 2.322550
						CHANNELS 3 Zrotation Yrotation Xrotation
						End Site
						{
							OFFSET 0.000000 0.000000 0.000000
						}
					}
				}
			}
		}
	}
	JOINT RHipJoint
	{
		OFFSET 0.000000 0.000000 0.000000
		CHANNELS 3 Zrotation Yrotation Xrotation
		JOINT RightUpLeg
		{
			OFFSET -1.305520 -1.794630 0.839290
			CHANNELS 3 Zrotation Yrotation Xrotation
			JOINT RightLeg
			{
				OFFSET -2.542530 -6.985550 0.000000
				CHANNELS 3 Zrotation Yrotation Xrotation
				JOINT RightFoot
				{
					OFFSET -2.568260 -7.056230 0.000000
					CHANNELS 3 Zrotation Yrotation Xrotation
					JOINT RightToeBase
					{
						OFFSET -0.164730 -0.452590 2.363150
						CHANNELS 3 Zrotation Yrotation Xrotation
						End Site
						{
							OFFSET 0.000000 0.000000 0.000000
						}
					}
				}
			}
		}
	}
	JOINT LowerBack
	{
		OFFSET 0.000000 0.000000 0.000000
		CHANNELS 3 Zrotation Yrotation Xrotation
		JOINT Spine
		{
			OFFSET 0.028270 2.035590 -0.193380
			CHANNELS 3 Zrotation Yrotation Xrotation
			JOINT Spine1
			{
				OFFSET 0.056720 2.048850 -0.042750
				CHANNELS 3 Zrotation Yrotation Xrotation
				JOINT Neck
				{
					OFFSET 0.000000 0.000000 0.000000
					CHANNELS 3 Zrotation Yrotation Xrotation
					JOINT Neck1
					{
						OFFSET -0.054170 1.746240 0.172020
						CHANNELS 3 Zrotation Yrotation Xrotation
						JOINT Head
						{
							OFFSET 0.104070 1.761360 -0.123970
							CHANNELS 3 Zrotation Yrotation Xrotation
							End Site
							{
								OFFSET 0.000000 0.000000 0.000000
							}
						}
					}
				}
				JOINT LeftShoulder
				{
					OFFSET 0.000000 0.000000 0.000000
					CHANNELS 3 Zrotation Yrotation Xrotation
					JOINT LeftArm
					{
						OFFSET 3.362410 1.200890 -0.311210
						CHANNELS 3 Zrotation Yrotation Xrotation
						JOINT LeftForeArm
						{
							OFFSET 4.983000 -0.000000 -0.000000
							CHANNELS 3 Zrotation Yrotation Xrotation
							JOINT LeftHand
							{
								OFFSET 3.483560 -0.000000 -0.000000
								CHANNELS 3 Zrotation Yrotation Xrotation
								JOINT LeftFingerBase
								{
									OFFSET 0.000000 0.000000 0.000000
									CHANNELS 3 Zrotation Yrotation Xrotation
									JOINT LeftHandIndex1
									{
										OFFSET 0.715260 -0.000000 -0.000000
										CHANNELS 3 Zrotation Yrotation Xrotation
										End Site
										{
											OFFSET 0.000000 0.000000 0.000000
										}
									}
								}
								JOINT LThumb
								{
									OFFSET 0.000000 0.000000 0.000000
									CHANNELS 3 Zrotation Yrotation Xrotation
									End Site
									{
										OFFSET 0.000000 0.000000 0.000000
									}
								}
							}
						}
					}
				}
				JOINT RightShoulder
				{
					OFFSET 0.000000 0.000000 0.000000
					CHANNELS 3 Zrotation Yrotation Xrotation
					JOINT RightArm
					{
						OFFSET -3.136600 1.374050 -0.404650
						CHANNELS 3 Zrotation Yrotation Xrotation
						JOINT RightForeArm
						{
							OFFSET -5.241900 -0.000000 -0.000000
							CHANNELS 3 Zrotation Yrotation Xrotation
							JOINT RightHand
							{
								OFFSET -3.444170 -0.000000 -0.000000
								CHANNELS 3 Zrotation Yrotation Xrotation
								JOINT RightFingerBase
								{
									OFFSET 0.000000 0.000000 0.000000
									CHANNELS 3 Zrotation Yrotation Xrotation
									JOINT RightHandIndex1
									{
										OFFSET -0.622530 -0.000000 -0.000000
										CHANNELS 3 Zrotation Yrotation Xrotation
										End Site
										{
											OFFSET 0.000000 0.000000 0.000000
										}
									}
								}
								JOINT RThumb
								{
									OFFSET 0.000000 0.000000 0.000000
									CHANNELS 3 Zrotation Yrotation Xrotation
									End Site
									{
										OFFSET 0.000000 0.000000 0.000000
									}
								}
							}
						}
					}
				}
			}
		}
	}
}
MOTION
Frames: 4
Frame Time: 0.008333
1.886604 17.690836 -6.602914 0.651466 -29.749400 5.506553 -1.763005 1.057853 0.212315 -11.480685 -8.809843 -27.534168 -1.148850 5.147581 14.594123 -1.485631 8.166149 3.453723 0.356300 -3.835000 -10.613000 1.085353 -3.027637 2.786548 20.172669 3.804483 -5.138825 -0.988544 -7.333770 24.226675 -1.111683 0.249484 -15.793106 -0.073000 1.742700 -4.795000 3.845648 4.944667 4.442202 -0.278117 6.217452 -0.301316 -3.167172 3.882444 -1.290758 -9.662768 -2.127655 -23.321175 1.180211 0.136480 -4.542357 2.633300 -0.098000 5.780800 -10.169193 -1.463779 -1.862535 -53.605440 -1.566109 -5.870726 25.363102 -38.799589 -11.302392 0.135332 -1.822652 -12.527118 20.586277 26.579077 10.293700 -7.125000 0.000000 0.000000 -11.290400 59.727900 -4.090900 8.856111 3.581030 -1.807646 25.376902 29.430528 10.770724 -29.367062 37.014565 -12.168338 0.798580 -0.452155 16.187013 -28.280795 3.803103 -2.235300 7.125000 0.000000 0.000000 -1.913100 -25.390100 -0.908500 
1.924501 17.690334 -6.678205 0.581779 -29.776603 5.547961 -1.778072 1.057069 0.220853 -11.351127 -8.897999 -27.454573 -1.198159 4.993404 14.162897 -1.595429 8.558262 2.928824 0.363900 -3.875300 -10.726200 1.086704 -2.989953 2.744408 20.195871 3.776259 -5.730271 -1.074275 -7.506210 24.728899 -1.135262 0.448019 -15.606884 -0.082300 1.850700 -5.093100 3.949881 4.918553 4.797420 -0.212945 6.209390 -0.225795 -3.119955 3.864718 -1.358823 -9.680046 -2.145509 -23.321341 0.981763 0.100019 -4.715947 2.576200 -0.125600 5.725400 -10.239627 -1.395993 -1.928450 -55.012546 -1.201470 -4.805757 23.060486 -36.762857 -9.725111 0.137942 -1.826381 -10.438498 18.743141 26.798024 9.360400 -7.125000 0.000000 0.000000 -13.519900 59.507800 -4.844100 8.933047 3.453411 -1.668475 27.910694 28.726426 12.178529 -29.385596 36.853802 -12.093489 0.836648 -0.462432 14.390604 -28.526339 3.710318 -2.226600 7.125000 0.000000 0.000000 -2.125200 -25.447300 -1.006500 
1.961494 17.688424 -6.751587 0.573456 -29.740837 5.590687 -1.793304 1.050378 0.224320 -11.312379 -8.954370 -27.439981 -1.239255 4.866070 13.809512 -1.672850 8.831849 2.501054 0.347400 -3.787200 -10.478700 1.083125 -2.953137 2.703512 20.174312 3.684738 -6.343098 -1.153822 -7.663745 25.185769 -1.158620 0.662719 -15.385677 -0.082700 1.854400 -5.103600 3.840007 4.864827 5.127077 -0.045992 6.152864 -0.166459 -2.816669 3.820426 -1.468466 -9.817429 -2.137893 -23.317431 0.677592 0.126420 -4.854908 2.508900 -0.135100 5.673300 -10.300298 -1.326375 -1.989770 -56.723384 -0.840193 -4.192434 20.974813 -34.743245 -8.358519 0.162199 -1.805933 -7.369857 15.990337 26.802780 7.873700 -7.125000 0.000000 0.000000 -16.599600 58.843500 -5.716400 9.009864 3.316103 -1.536498 30.320015 27.831218 13.738422 -29.415737 36.745686 -12.036776 0.874209 -0.450507 12.357875 -28.570072 3.606682 -2.182700 7.125000 0.000000 0.000000 -2.181400 -25.546200 -1.028100 
1.997380 17.686614 -6.817731 0.474165 -29.638403 5.725124 -1.802208 1.035269 0.224810 -11.242027 -8.882638 -27.518692 -1.277724 4.747275 13.467756 -1.697752 8.926393 2.356952 0.367600 -3.894500 -10.780000 1.078102 -2.915222 2.662001 20.246460 3.651400 -6.897974 -1.225513 -7.800073 25.584429 -1.218254 0.979174 -15.307056 -0.044000 1.354000 -3.723300 3.703218 4.809475 5.377471 0.232150 6.091443 -0.136658 -2.344111 3.772843 -1.588414 -10.083434 -2.120000 -23.354053 0.346246 0.210217 -4.865251 2.454700 -0.127300 5.661600 -10.356817 -1.246477 -2.047550 -58.653300 -0.397453 -3.807108 18.951598 -32.609034 -7.079798 0.126568 -1.770233 -3.303697 14.306968 26.228510 6.837000 -7.125000 0.000000 0.000000 -18.062300 57.865800 -5.812700 9.093161 3.169567 -1.412163 32.571503 26.618548 15.246117 -29.437935 36.683910 -11.996058 0.904388 -0.427034 10.671737 -28.489954 3.439532 -2.083100 7.125000 0.000000 0.000000 -2.142300 -25.740300 -1.000000 
